<svg xmlns="http://www.w3.org/2000/svg" viewBox="-2077.20 -3300.00 11477.00 23550.00" xmlns:c2pa="http://c2pa.org/manifest"><metadata><c2pa:manifest>AAAWgmp1bWIAAAAeanVtZGMycGEAEQAQgAAAqgA4m3EDYzJwYQAAABZcanVtYgAAAEdqdW1kYzJtYQARABCAAACqADibcQN1cm46YzJwYTpkMjVjZGEyYi05MTdhLTQwMTItODkyYS05MjJkMmM5MmE4MGYAAAADl2p1bWIAAAApanVtZGMyYXMAEQAQgAAAqgA4m3EDYzJwYS5hc3NlcnRpb25zAAAAALxqdW1iAAAARGp1bWRjYm9yABEAEIAAAKoAOJtxE2MycGEuaW5ncmVkaWVudC52MwAAAAAYYzJzaK+Ec0xSKK6+paGK8d+xQgIAAABwY2JvcqNpZGM6Zm9ybWF0bWltYWdlL3N2Zyt4bWxqaW5zdGFuY2VJRHgseG1wOmlpZDo5OGJmMzg2OC03YTM3LTQzOTYtYmYzYi0yYTVkMjMzNWY0ZWJscmVsYXRpb25zaGlwaHBhcmVudE9mAAAB4mp1bWIAAABBanVtZGNib3IAEQAQgAAAqgA4m3ETYzJwYS5hY3Rpb25zLnYyAAAAABhjMnNo3Z6xABDFkoHzutgMPlGLrwAAAZljYm9yomdhY3Rpb25zgqJmYWN0aW9ua2MycGEub3BlbmVkanBhcmFtZXRlcnOha2luZ3JlZGllbnRzgaJjdXJseC1zZWxmI2p1bWJmPWMycGEuYXNzZXJ0aW9ucy9jMnBhLmluZ3JlZGllbnQudjNkaGFzaFggfQ7lRCxJRy/5+s8Ct9iAkh/J/dWzF5UevJLX58tnoBukZmFjdGlvbngdY29tLmFudGhyb3BpYy5jbGF1ZGUucHJvdmlkZWRqcGFyYW1ldGVyc6F4H2NvbS5hbnRocm9waWMub3JpZ2luLWNvbmZpZGVuY2VndW5rbm93bmtkZXNjcmlwdGlvbnhmQ2xhdWRlIHByb3ZpZGVkIHRoaXMgZmlsZSBhdCB0aGUgcmVxdWVzdCBvZiBhIHVzZXIgYW5kIG1heSBoYXZlIGNyZWF0ZWQgb3IgbW9kaWZpZWQgdGhlIGZpbGUgY29udGVudHMubXNvZnR3YXJlQWdlbnShZG5hbWVmQ2xhdWRlcmFsbEFjdGlvbnNJbmNsdWRlZPUAAADIanVtYgAAAEBqdW1kY2JvcgARABCAAACqADibcRNjMnBhLmhhc2guZGF0YQAAAAAYYzJzaMbwFyy8O0oKL2mybiyCgVYAAACAY2JvcqVjYWxnZnNoYTI1NmNwYWRNAAAAAAAAAAAAAAAAAGRoYXNoWCDZa++Suy2swPymOnptaWiDZfPe0oXjpG9r1emWf55t+WRuYW1lbmp1bWJmIG1hbmlmZXN0amV4Y2x1c2lvbnOBomVzdGFydBiVZmxlbmd0aBkeBAAAAj5qdW1iAAAAJ2p1bWRjMmNsABEAEIAAAKoAOJtxA2MycGEuY2xhaW0udjIAAAACD2Nib3KlY2FsZ2ZzaGEyNTZpc2lnbmF0dXJleE1zZWxmI2p1bWJmPS9jMnBhL3VybjpjMnBhOmQyNWNkYTJiLTkxN2EtNDAxMi04OTJhLTkyMmQyYzkyYTgwZi9jMnBhLnNpZ25hdHVyZWppbnN0YW5jZUlEeCx4bXA6aWlkOjQxZmFjMzI3LTEyOWEtNDYyNC1hNjQ5LWJiNzE0ZmE4NjczNnJjcmVhdGVkX2Fzc2VydGlvbnODomN1cmx4LXNlbGYjanVtYmY9YzJwYS5hc3NlcnRpb25zL2MycGEuaW5ncmVkaWVudC52M2RoYXNoWCB9DuVELElHL/n6zwK32ICSH8n91bMXlR68ktfny2egG6JjdXJseCpzZWxmI2p1bWJmPWMycGEuYXNzZXJ0aW9ucy9jMnBhLmFjdGlvbnMudjJkaGFzaFggoAEc65FBs2+lyrS2c1/AHGubj7Dpa0qNbN1tsPCLD2+iY3VybHgpc2VsZiNqdW1iZj1jMnBhLmFzc2VydGlvbnMvYzJwYS5oYXNoLmRhdGFkaGFzaFggK1hZerVaZTolWlOqN6MibipAKjQuJaBjKhv5rukb+dR0Y2xhaW1fZ2VuZXJhdG9yX2luZm+jZG5hbWVvQW50aHJvcGljIEZpbGVzZ3ZlcnNpb25lMS4wLjBrc3BlY1ZlcnNpb25lMi40LjAAABA4anVtYgAAAChqdW1kYzJjcwARABCAAACqADibcQNjMnBhLnNpZ25hdHVyZQAAABAIY2JvctKEWQISogEmGCFZAgowggIGMIIBjaADAgECAhRA5aAK7sI50L64g/oGQgU9Z1UTADAKBggqhkjOPQQDAzBJMRcwFQYDVQQKEw5BbnRocm9waWMsIFBCQzEuMCwGA1UEAxMlQW50aHJvcGljIENvbnRlbnQgQ3JlZGVudGlhbHMgUm9vdCBDQTAeFw0yNjA4MDcxODQzNTZaFw0yODA4MDYxOTQzNTZaMEQxFzAVBgNVBAoTDkFudGhyb3BpYywgUEJDMSkwJwYDVQQDEyBBbnRocm9waWMgQ2xhdWRlIENvbnRlbnQgU2lnbmluZzBZMBMGByqGSM49AgEGCCqGSM49AwEHA0IABJh6CmvLUBgFFNU0vUKlOVtE6djd17L5SuwX0LemFisBM3dkd/3cyjxFA3Qo5S46fX0/ihY0VZ7mfb9KF703t5OjWDBWMA4GA1UdDwEB/wQEAwIHgDAVBgNVHSUEDjAMBgorBgEEAYPoXgIBMAwGA1UdEwEB/wQCMAAwHwYDVR0jBBgwFoAUzlHiBIFOZFsj+OPEz5o+nMHXXMIwCgYIKoZIzj0EAwMDZwAwZAIwMXMdFJ4BetLLVY7ORuE9noqbbAZOZn/aArXyTwFAZfKrPzxF2vPoJNf1+UCdg1XGAjBwX1zd9WGqYkqmL5SFqw1QySjr1zJfpJM9+1rdDwSPLMOPOjKuiXjoU/pUUeG9RwmhY3BhZFkNngAAAAAAAAAAAAAAAAAAAAAAAAAAAAAAAAAAAAAAAAAAAAAAAAAAAAAAAAAAAAAAAAAAAAAAAAAAAAAAAAAAAAAAAAAAAAAAAAAAAAAAAAAAAAAAAAAAAAAAAAAAAAAAAAAAAAAAAAAAAAAAAAAAAAAAAAAAAAAAAAAAAAAAAAAAAAAAAAAAAAAAAAAAAAAAAAAAAAAAAAAAAAAAAAAAAAAAAAAAAAAAAAAAAAAAAAAAAAAAAAAAAAAAAAAAAAAAAAAAAAAAAAAAAAAAAAAAAAAAAAAAAAAAAAAAAAAAAAAAAAAAAAAAAAAAAAAAAAAAAAAAAAAAAAAAAAAAAAAAAAAAAAAAAAAAAAAAAAAAAAAAAAAAAAAAAAAAAAAAAAAAAAAAAAAAAAAAAAAAAAAAAAAAAAAAAAAAAAAAAAAAAAAAAAAAAAAAAAAAAAAAAAAAAAAAAAAAAAAAAAAAAAAAAAAAAAAAAAAAAAAAAAAAAAAAAAAAAAAAAAAAAAAAAAAAAAAAAAAAAAAAAAAAAAAAAAAAAAAAAAAAAAAAAAAAAAAAAAAAAAAAAAAAAAAAAAAAAAAAAAAAAAAAAAAAAAAAAAAAAAAAAAAAAAAAAAAAAAAAAAAAAAAAAAAAAAAAAAAAAAAAAAAAAAAAAAAAAAAAAAAAAAAAAAAAAAAAAAAAAAAAAAAAAAAAAAAAAAAAAAAAAAAAAAAAAAAAAAAAAAAAAAAAAAAAAAAAAAAAAAAAAAAAAAAAAAAAAAAAAAAAAAAAAAAAAAAAAAAAAAAAAAAAAAAAAAAAAAAAAAAAAAAAAAAAAAAAAAAAAAAAAAAAAAAAAAAAAAAAAAAAAAAAAAAAAAAAAAAAAAAAAAAAAAAAAAAAAAAAAAAAAAAAAAAAAAAAAAAAAAAAAAAAAAAAAAAAAAAAAAAAAAAAAAAAAAAAAAAAAAAAAAAAAAAAAAAAAAAAAAAAAAAAAAAAAAAAAAAAAAAAAAAAAAAAAAAAAAAAAAAAAAAAAAAAAAAAAAAAAAAAAAAAAAAAAAAAAAAAAAAAAAAAAAAAAAAAAAAAAAAAAAAAAAAAAAAAAAAAAAAAAAAAAAAAAAAAAAAAAAAAAAAAAAAAAAAAAAAAAAAAAAAAAAAAAAAAAAAAAAAAAAAAAAAAAAAAAAAAAAAAAAAAAAAAAAAAAAAAAAAAAAAAAAAAAAAAAAAAAAAAAAAAAAAAAAAAAAAAAAAAAAAAAAAAAAAAAAAAAAAAAAAAAAAAAAAAAAAAAAAAAAAAAAAAAAAAAAAAAAAAAAAAAAAAAAAAAAAAAAAAAAAAAAAAAAAAAAAAAAAAAAAAAAAAAAAAAAAAAAAAAAAAAAAAAAAAAAAAAAAAAAAAAAAAAAAAAAAAAAAAAAAAAAAAAAAAAAAAAAAAAAAAAAAAAAAAAAAAAAAAAAAAAAAAAAAAAAAAAAAAAAAAAAAAAAAAAAAAAAAAAAAAAAAAAAAAAAAAAAAAAAAAAAAAAAAAAAAAAAAAAAAAAAAAAAAAAAAAAAAAAAAAAAAAAAAAAAAAAAAAAAAAAAAAAAAAAAAAAAAAAAAAAAAAAAAAAAAAAAAAAAAAAAAAAAAAAAAAAAAAAAAAAAAAAAAAAAAAAAAAAAAAAAAAAAAAAAAAAAAAAAAAAAAAAAAAAAAAAAAAAAAAAAAAAAAAAAAAAAAAAAAAAAAAAAAAAAAAAAAAAAAAAAAAAAAAAAAAAAAAAAAAAAAAAAAAAAAAAAAAAAAAAAAAAAAAAAAAAAAAAAAAAAAAAAAAAAAAAAAAAAAAAAAAAAAAAAAAAAAAAAAAAAAAAAAAAAAAAAAAAAAAAAAAAAAAAAAAAAAAAAAAAAAAAAAAAAAAAAAAAAAAAAAAAAAAAAAAAAAAAAAAAAAAAAAAAAAAAAAAAAAAAAAAAAAAAAAAAAAAAAAAAAAAAAAAAAAAAAAAAAAAAAAAAAAAAAAAAAAAAAAAAAAAAAAAAAAAAAAAAAAAAAAAAAAAAAAAAAAAAAAAAAAAAAAAAAAAAAAAAAAAAAAAAAAAAAAAAAAAAAAAAAAAAAAAAAAAAAAAAAAAAAAAAAAAAAAAAAAAAAAAAAAAAAAAAAAAAAAAAAAAAAAAAAAAAAAAAAAAAAAAAAAAAAAAAAAAAAAAAAAAAAAAAAAAAAAAAAAAAAAAAAAAAAAAAAAAAAAAAAAAAAAAAAAAAAAAAAAAAAAAAAAAAAAAAAAAAAAAAAAAAAAAAAAAAAAAAAAAAAAAAAAAAAAAAAAAAAAAAAAAAAAAAAAAAAAAAAAAAAAAAAAAAAAAAAAAAAAAAAAAAAAAAAAAAAAAAAAAAAAAAAAAAAAAAAAAAAAAAAAAAAAAAAAAAAAAAAAAAAAAAAAAAAAAAAAAAAAAAAAAAAAAAAAAAAAAAAAAAAAAAAAAAAAAAAAAAAAAAAAAAAAAAAAAAAAAAAAAAAAAAAAAAAAAAAAAAAAAAAAAAAAAAAAAAAAAAAAAAAAAAAAAAAAAAAAAAAAAAAAAAAAAAAAAAAAAAAAAAAAAAAAAAAAAAAAAAAAAAAAAAAAAAAAAAAAAAAAAAAAAAAAAAAAAAAAAAAAAAAAAAAAAAAAAAAAAAAAAAAAAAAAAAAAAAAAAAAAAAAAAAAAAAAAAAAAAAAAAAAAAAAAAAAAAAAAAAAAAAAAAAAAAAAAAAAAAAAAAAAAAAAAAAAAAAAAAAAAAAAAAAAAAAAAAAAAAAAAAAAAAAAAAAAAAAAAAAAAAAAAAAAAAAAAAAAAAAAAAAAAAAAAAAAAAAAAAAAAAAAAAAAAAAAAAAAAAAAAAAAAAAAAAAAAAAAAAAAAAAAAAAAAAAAAAAAAAAAAAAAAAAAAAAAAAAAAAAAAAAAAAAAAAAAAAAAAAAAAAAAAAAAAAAAAAAAAAAAAAAAAAAAAAAAAAAAAAAAAAAAAAAAAAAAAAAAAAAAAAAAAAAAAAAAAAAAAAAAAAAAAAAAAAAAAAAAAAAAAAAAAAAAAAAAAAAAAAAAAAAAAAAAAAAAAAAAAAAAAAAAAAAAAAAAAAAAAAAAAAAAAAAAAAAAAAAAAAAAAAAAAAAAAAAAAAAAAAAAAAAAAAAAAAAAAAAAAAAAAAAAAAAAAAAAAAAAAAAAAAAAAAAAAAAAAAAAAAAAAAAAAAAAAAAAAAAAAAAAAAAAAAAAAAAAAAAAAAAAAAAAAAAAAAAAAAAAAAAAAAAAAAAAAAAAAAAAAAAAAAAAAAAAAAAAAAAAAAAAAAAAAAAAAAAAAAAAAAAAAAAAAAAAAAAAAAAAAAAAAAAAAAAAAAAAAAAAAAAAAAAAAAAAAAAAAAAAAAAAAAAAAAAAAAAAAAAAAAAAAAAAAAAAAAAAAAAAAAAAAAAAAAAAAAAAAAAAAAAAAAAAAAAAAAAAAAAAAAAAAAAAAAAAAAAAAAAAAAAAAAAAAAAAAAAAAAAAAAAAAAAAAAAAAAAAAAAAAAAAAAAAAAAAAAAAAAAAAAAAAAAAAAAAAAAAAAAAAAAAAAAAAAAAAAAAAAAAAAAAAAAAAAAAAAAAAAAAAAAAAAAAAAAAAAAAAAAAAAAAAAAAAAAAAAAAAAAAAAAAAAAAAAAAAAAAAAAAAAAAAAAAAAAAAAAAAAAAAAAAAAAAAAAAAAAAAAAAAAAAAAAAAAAAAAAAAAAAAAAAAAAAAAAAAAAAAAAAAAAAAAAAAAAAAAAAAAAAAAAAAAAAAAAAAAAAAAAAAAAAAAAAAAAAAAAAAAAAAAAAAAAAAAAAAAAAAAAAAAAAAAAAAAAAAAAAAAAAAAAAAAAAAAAAAAAAAAAAAAAAAAAAAAAAAAAAAAAAAAAAAAAAAAAAAAAAAAAAAAAAAAAAAAAAAAAAAAAAAAAAAAAAAAAAAAAAAAAAAAAAAAAAAAAAAAAAAAAAAAAAAAAAAAAAAAAAAAAAAAAAAAAAAAAAAAAAAAAAAAAAAAAAAAAAAAAAAAAAAAAAAAAAAAAAAAAAAAAAAAAAAAAAAAAAAAAAAAAAAAAAAAAAAAAAAAAAAAAAAAAAAAAAAAAAAAAAAAAAAAAAAAAAAAAAAAAAAAAAAAAAAAAAAAAAAAAAAAAAAAAAAAAAAAAAAAAAAAAAAAAAAAAAAAAAAAAAAAAAAAAAAAAAAAAAAAAAAAAAAAAAAAAAAAAAAAAAAAAAAAAAAAAAAAAAAAAAAAAAAAAAAAAAAAAAAAAAAAAAAAAAAAAAAAAAAAAAAAAAAAAAAAAAAAAAAAAAAAAAAAAAAAAAAAAAAAAAAAAAAAAAAAAAAAAAAAAAAAAAAAAAAAAAAAAAAAAAAAAAAAAAAAAAAAAAAAAAAAAAAAAAAAAAAAAAAAAAAAAAAAAAAAAAAAAAAAAAAAAAAAAAAAAAAAAAAAAAAAAAAAAAAAAAAAAAAAAAAAAAAAAAAAAAAAAAAAAAAAAAAAAAAAAAAAAAAAAAAAAAAAAAAAAAAAAAAAAAAAAAAAAAAAAAAAAAAAAAAAAAAAAAAAAAAAAAAAAAAAAAAAAAAAAAAAAAAAAAAAAAAAAAAAAAAAAAAAAAAAAAAAAAAAAAAAAAAAAAAAAAAAAAAAAAAAAAAAAAAAAAAAAAAAAAAAAAAAAAAAAAAAAAAAAAAAAAAAAAAAAAAAAAAAAAAAAAAAAAAAAAAAAAAAAAAAAPZYQAal4FmyWB7wNFreGjWlm1GW4KfP68YfDDSGZJoL1Q51abvffJQL+j6xUGP5Mxq6qOC/iqNTTCm6hHUSwSa6gFk=</c2pa:manifest></metadata>
<defs><style type="text/css"><![CDATA[.str0 {stroke:black;stroke-width:52.92;stroke-linecap:round;stroke-linejoin:round;fill:none}]]></style></defs>
<g transform="rotate(180 3661.3 9400.0)"><g transform="translate(2050,17150) scale(1.288) translate(-2050,-17150)"><g id="arm" transform="translate(0,-2700) rotate(180 3716.99 13350.29)">
  <path style="stroke:#e6e6e6;stroke-width:52.92;stroke-linecap:round;stroke-linejoin:round;fill:none" d="M 6796.74,6414.92 L 6761.300388829786,6824.999999999998 C 6733.370992199054,7982.4594194461115 6590.0274797960465,9005.934721503898 6513.364817895499,9700.0 C 6499.054734460724,9829.556315920054 6488.616928076161,9939.98319865598 6485.341204473874,10027.75 C 6485.341204473874,10385.5 6504.841204473874,10522.0 6485.341204473874,10603.0 C 6279.091204473874,11463.25 6249.091204473874,11656.75 6012.841204473874,12129.25 C 5776.591204473874,12601.75 5376.841204473874,13267.75 5255.341204473874,13595.5 C 5066.341204473874,14106.25 4759.591204473874,14764.75 4617.841204473874,15291.25 C 4584.841204473874,15223.75 4313.341204473874,15130.75 4227.091204473874,15100.75 C 4227.091204473874,15100.75 4502.562374761354,15227.850634125109 4604.353532993691,15325.0 C 4631.757007807895,15351.153845257282 4649.698077148511,15375.67589050904 4653.224515715959,15396.834521913726 C 4622.295763225327,15786.935883972983 4274.0978722824075,16876.426132997818 4223.215085926853,17292.46773908148 C 4196.277140209206,17507.971304822655 4374.865743300273,18513.654611614813 4416.769214416612,18600.45465892723 C 4458.6726855329525,18687.254706239648 4322.985255251471,19065.383647979954 4099.500075964325,18753.103017993897 C 3895.9689305421034,18468.758035418734 3938.8701033516895,17779.346165385617 3823.1367069351318,17636.674823251415 C 3814.1573916959164,17626.697806318953 3803.1826730702082,17617.718491079737 3792.2079544445,17610.734579227013 C 3790.2125510580076,17609.736877533767 3789.2148493647614,17609.736877533767 3787.219445978269,17608.73917584052 C 3748.3090799416677,17595.76905382832 3717.380327451036,17596.766755521567 3692.4377851198815,17606.74377245403 C 3666.4975410954808,17622.706999545968 3640.55729707108,17655.631155423092 3617.6101581264174,17713.49785363137 L 3617.6101581264174,17714.495555324615 C 3610.626246273694,17744.426606122 3607.6331411939555,17777.350761999125 3608.6308428872017,17807.28181279651 C 3610.626246273694,17914.035893973854 3563.7342666911236,19373.673471193022 3599.6515276479863,19447.50339649324 C 3635.568788604849,19520.335620100213 3608.6308428872017,19753.79781631982 3486.911236311167,19774.74955187799 C 3486.911236311167,19772.7541484915 3485.913534617921,19770.758745105006 3485.913534617921,19767.765640025267 L 3486.911236311167,19773.751850184744 C 3350.2261043364397,19840.59786363224 3235.490409613128,19760.781728172544 3223.517989294174,19572.216108149016 C 3203.56395542925,19264.92398662919 3121.7524165830628,17909.047385507623 3061.8903149882917,17785.332375545095 C 3056.9018065220607,17785.332375545095 3050.915596362584,17784.33467385185 3045.927087896353,17784.33467385185 C 3044.929386203107,17786.33007723834 3043.9316845098606,17787.327778931587 3043.9316845098606,17789.32318231808 C 2903.2557457621483,18073.668164893243 2565.034871751691,19456.482711732457 2595.963624242323,19688.947206258817 C 2626.8923767329547,19921.41170078518 2272.7082756305585,19961.319768515026 2185.9082283181406,19666.9977690074 C 2102.1012860854607,19382.652786432238 2484.22103459875,17859.162300845313 2479.232526132519,17598.76215890806 C 2469.2555092000575,17597.764457214813 2461.273895654088,17595.76905382832 2454.2899838013645,17593.773650441828 C 2242.777224833173,17778.34846369237 1786.8275510196659,19104.294014016552 1711.0022223329556,19324.786088223962 C 1632.183788566507,19553.259775977338 1265.0295654519105,19495.39307776906 1358.813524617052,19221.025112126357 C 1409.6963109726075,18779.0432620183 1916.5287711416702,17311.424071253157 2083.144953913783,16722.780072237907 C 2143.0070555085545,16511.267313269716 2041.2414827974433,16546.186872533333 1871.6321949455917,16640.96853339172 C 1630.1883851800146,16774.66056028671 1282.9881959303418,16950.256058298037 1067.4846301891657,17055.014736088888 C 980.6845828767475,17097.915908898474 550.6751530876412,17009.120458199563 706.3166172340462,16781.644472139433 L 706.3166172340462,16781.644472139433 L 706.3166172340462,16781.644472139433 C 793.1166645464644,16735.750194250108 879.9167118588826,16667.906479109366 962.7259523983162,16599.06506227538 C 1125.3513283974444,16464.375333687145 1276.0042840776186,16322.701693246185 1392.7353821874224,16319.708588166446 L 1392.7353821874224,16319.708588166446 C 1422.6246501327307,16118.254922215066 1908.8231618958962,15663.932868402302 2358.174796626854,15325.0 C 2584.1551841660794,15154.549566461035 2797.7387893345367,15022.920730156035 2887.9272452984987,15013.0 C 3007.9272452984987,14044.0 3475.1772452984987,12631.0 3522.4272452984987,12325.75 C 3604.9272452984987,11794.75 3649.9272452984987,10642.0 3949.9272452984987,10321.0 C 4020.4272452984987,10168.0 4262.677245298499,9814.75 4292.677245298499,9712.75 C 4289.323849101219,9709.98052851369 4286.0005137621865,9705.709127480146 4282.708981193994,9700.000000000002 C 4164.7107753463315,9495.333393896031 4071.235406131803,8182.0485811987055 4031.1737423220966,6824.9999999999945 L 3995.58,6414.92"/>
 </g></g></g>
<line x1="3484.34" y1="1088.87" x2="3397.41" y2="87.36" stroke="#e6e6e6" stroke-width="68.16" stroke-linecap="round"/>
<line x1="7092.23" y1="1088.87" x2="7178.18" y2="94.37" stroke="#e6e6e6" stroke-width="68.16" stroke-linecap="round"/>
<line x1="3352.39" y1="-1821.26" x2="2192.91" y2="-1616.81" class="str0"/>
<line x1="4023.53" y1="-658.81" x2="2881.06" y2="702.72" class="str0"/>
<line x1="6546.18" y1="-658.81" x2="7688.65" y2="702.72" class="str0"/>
<line x1="7217.32" y1="-1821.26" x2="8376.80" y2="-1616.81" class="str0"/>
<g transform="translate(3247.12 17713.57) scale(1,-1)"><g id="sun"><path class="str0" d="M 75.46,19875.57 A 1962.28,1962.28 0 0,1 4000.02,19875.57"/></g></g>
<text x="4650.0" y="-1520.0" text-anchor="middle" font-family="'DejaVu Sans', Arial, sans-serif" font-size="745" font-weight="bold" fill="black">G</text>
<text x="5922.0" y="-1520.0" text-anchor="middle" font-family="'DejaVu Sans', Arial, sans-serif" font-size="745" font-weight="bold" fill="black">D</text>
<path d="M5282,-1840 C5173,-2063.5 4998.6,-1932.7 4998.6,-1801.9 C4998.6,-1703.8 5107.6,-1627.5 5282,-1518.5 C5456.4,-1627.5 5565.4,-1703.8 5565.4,-1801.9 C5565.4,-1932.7 5391,-2063.5 5282,-1840 Z" fill="none" stroke="black" stroke-width="120" stroke-linejoin="round"/>
<text x="5172.0" y="-1060.0" text-anchor="end" font-family="'DejaVu Sans', Arial, sans-serif" font-size="353" fill="black">Life</text>
<text x="5392.0" y="-1060.0" text-anchor="start" font-family="'DejaVu Sans', Arial, sans-serif" font-size="353" fill="black">Giver</text>
<line x1="5282.0" y1="-1576" x2="5282.0" y2="2360" stroke="black" stroke-width="62" stroke-linecap="round"/>
<line x1="4732.0" y1="530" x2="5832.0" y2="530" stroke="black" stroke-width="62" stroke-linecap="round"/>
<path d="M5282.0,2360.0 C5332.5,2474.1 5511.5,2816.3 5585.3,3044.4 C5659.0,3272.6 5715.2,3500.7 5724.4,3728.9 C5733.5,3957.0 5698.6,4185.2 5640.1,4413.3 C5581.6,4641.5 5493.9,4869.6 5373.5,5097.8 C5253.1,5325.9 5066.2,5554.1 4917.5,5782.2 C4768.7,6010.4 4575.0,6238.5 4481.1,6466.7 C4387.2,6694.8 4361.7,6923.0 4353.9,7151.1 C4346.0,7379.3 4400.0,7607.4 4434.0,7835.6 C4468.1,8063.7 4524.7,8291.9 4558.1,8520.0 C4591.6,8748.1 4647.8,8976.3 4634.8,9204.4 C4621.8,9432.6 4575.2,9660.7 4480.1,9888.9 C4384.9,10117.0 4200.5,10345.2 4063.8,10573.3 C3927.1,10801.5 3842.5,11029.6 3659.8,11257.8 C3477.1,11485.9 3185.3,11714.1 2967.7,11942.2 C2750.0,12170.4 2500.7,12398.5 2354.1,12626.7 C2207.5,12854.8 2120.1,13083.0 2088.2,13311.1 C2056.3,13539.3 2119.2,13767.4 2162.8,13995.6 C2206.4,14223.7 2318.8,14565.9 2350.0,14680.0" fill="none" stroke="#b8b8b8" stroke-width="48" stroke-linecap="round" stroke-linejoin="round"/>
<circle cx="4950.6" cy="5265.0" r="275" fill="white" stroke="black" stroke-width="44"/>
<text x="4950.6" y="5415.0" text-anchor="middle" font-family="'DejaVu Sans', Arial, sans-serif" font-size="430" font-weight="bold" fill="black">1</text>
<circle cx="3404.6" cy="9886.0" r="275" fill="white" stroke="black" stroke-width="44"/>
<text x="3404.6" y="10036.0" text-anchor="middle" font-family="'DejaVu Sans', Arial, sans-serif" font-size="430" font-weight="bold" fill="black">2</text>
<circle cx="2646.6" cy="12387.0" r="205" fill="white" stroke="black" stroke-width="44"/>
<text x="2646.6" y="12502.0" text-anchor="middle" font-family="'DejaVu Sans', Arial, sans-serif" font-size="330" font-weight="bold" fill="black">3</text>
<circle cx="-375.4" cy="14557.0" r="205" fill="white" stroke="black" stroke-width="44"/>
<text x="-375.4" y="14672.0" text-anchor="middle" font-family="'DejaVu Sans', Arial, sans-serif" font-size="330" font-weight="bold" fill="black">4</text>
<circle cx="357.6" cy="17634.0" r="205" fill="white" stroke="black" stroke-width="44"/>
<text x="357.6" y="17749.0" text-anchor="middle" font-family="'DejaVu Sans', Arial, sans-serif" font-size="330" font-weight="bold" fill="black">5</text>
<circle cx="1413.6" cy="18046.0" r="205" fill="white" stroke="black" stroke-width="44"/>
<text x="1413.6" y="18161.0" text-anchor="middle" font-family="'DejaVu Sans', Arial, sans-serif" font-size="330" font-weight="bold" fill="black">6</text>
<circle cx="2726.6" cy="17995.0" r="205" fill="white" stroke="black" stroke-width="44"/>
<text x="2726.6" y="18110.0" text-anchor="middle" font-family="'DejaVu Sans', Arial, sans-serif" font-size="330" font-weight="bold" fill="black">7</text>
<circle cx="3774.6" cy="16728.0" r="205" fill="white" stroke="black" stroke-width="44"/>
<text x="3774.6" y="16843.0" text-anchor="middle" font-family="'DejaVu Sans', Arial, sans-serif" font-size="330" font-weight="bold" fill="black">8</text>
<text x="3404.6" y="10586.0" text-anchor="middle" font-family="'DejaVu Sans', Arial, sans-serif" font-size="400" fill="black">Love Neighbors,</text>
<text x="3404.6" y="11076.0" text-anchor="middle" font-family="'DejaVu Sans', Arial, sans-serif" font-size="400" fill="black">Love Enemies,</text>
<text x="3404.6" y="11565.0" text-anchor="middle" font-family="'DejaVu Sans', Arial, sans-serif" font-size="400" fill="black">Love Believers</text>
<text x="2646.6" y="12995.0" text-anchor="middle" font-family="'DejaVu Sans', Arial, sans-serif" font-size="400" fill="black">Believe in Jesus,</text>
<text x="2646.6" y="13484.0" text-anchor="middle" font-family="'DejaVu Sans', Arial, sans-serif" font-size="400" fill="black">Repent,</text>
<text x="2646.6" y="13974.0" text-anchor="middle" font-family="'DejaVu Sans', Arial, sans-serif" font-size="400" fill="black">Receive the Holy Spirit</text>
<text x="4950.6" y="5965.0" text-anchor="middle" font-family="'DejaVu Sans', Arial, sans-serif" font-size="430" fill="black">Love God</text>
<text x="-708.4" y="15716.0" text-anchor="middle" font-family="'DejaVu Sans', Arial, sans-serif" font-size="340" fill="black">Baptize</text>
<line x1="-283.4" y1="15510.0" x2="-355.4" y2="14761.0" stroke="black" stroke-width="22" opacity="0.7"/>
<text x="-523.4" y="18621.0" text-anchor="middle" font-family="'DejaVu Sans', Arial, sans-serif" font-size="340" fill="black">Lord's Supper</text>
<line x1="506.6" y1="18492.0" x2="392.6" y2="17836.0" stroke="black" stroke-width="22" opacity="0.7"/>
<text x="1988.6" y="19454.0" text-anchor="middle" font-family="'DejaVu Sans', Arial, sans-serif" font-size="340" fill="black">Pray in the Name of Jesus</text>
<line x1="1859.6" y1="19299.0" x2="1482.6" y2="18239.0" stroke="black" stroke-width="22" opacity="0.7"/>
<text x="4692.6" y="18629.0" text-anchor="middle" font-family="'DejaVu Sans', Arial, sans-serif" font-size="340" fill="black">Give Generously</text>
<line x1="3662.6" y1="18500.0" x2="2906.6" y2="18092.0" stroke="black" stroke-width="22" opacity="0.7"/>
<text x="6202.6" y="16836.0" text-anchor="middle" font-family="'DejaVu Sans', Arial, sans-serif" font-size="340" fill="black">Make Disciples</text>
<line x1="4527.6" y1="16836.0" x2="3977.6" y2="16757.0" stroke="black" stroke-width="22" opacity="0.7"/>
<circle cx="2937.0" cy="1828.0" r="275" fill="white" stroke="black" stroke-width="44"/>
<text x="2937.0" y="1953.0" text-anchor="middle" font-family="'DejaVu Sans', Arial, sans-serif" font-size="430" font-weight="bold" fill="black">a</text>
<text x="5272.6" y="1982.0" text-anchor="middle" font-family="'DejaVu Sans', Arial, sans-serif" font-size="440" fill="black">He loved you first.</text>
<circle cx="3019.0" cy="2528.0" r="275" fill="white" stroke="black" stroke-width="44"/>
<text x="3019.0" y="2653.0" text-anchor="middle" font-family="'DejaVu Sans', Arial, sans-serif" font-size="430" font-weight="bold" fill="black">b</text>
<text x="5272.6" y="2682.0" text-anchor="middle" font-family="'DejaVu Sans', Arial, sans-serif" font-size="440" fill="black">You are His child.</text>
<circle cx="3292.0" cy="3228.0" r="275" fill="white" stroke="black" stroke-width="44"/>
<text x="3292.0" y="3353.0" text-anchor="middle" font-family="'DejaVu Sans', Arial, sans-serif" font-size="430" font-weight="bold" fill="black">c</text>
<text x="5272.6" y="3382.0" text-anchor="middle" font-family="'DejaVu Sans', Arial, sans-serif" font-size="440" fill="black">He comes first.</text>
</svg>